<svg width="237" height="48" viewBox="0 0 237 48" fill="none" xmlns="http://www.w3.org/2000/svg">
<path d="M10.3295 39H0.0454101V9.90908H10.3295C13.1704 9.90908 15.6231 10.4915 17.6875 11.6562C19.7519 12.8115 21.3428 14.4782 22.4602 16.6562C23.5776 18.8248 24.1363 21.4242 24.1363 24.4545C24.1363 27.4848 23.5776 30.089 22.4602 32.267C21.3428 34.4356 19.7519 36.1023 17.6875 37.267C15.6231 38.4223 13.1704 39 10.3295 39ZM9.98859 15.5909H6.63632V33.3182H10.0454C12.4602 33.3182 14.302 32.6364 15.571 31.2727C16.8494 29.9091 17.4886 27.6364 17.4886 24.4545C17.4886 21.2727 16.8494 19 15.571 17.6364C14.2926 16.2727 12.4318 15.5909 9.98859 15.5909ZM37.2897 39.3977C33.9659 39.3977 31.3428 38.4318 29.4204 36.5C27.5075 34.5587 26.5511 31.8693 26.5511 28.4318C26.5511 26.2159 26.9583 24.2415 27.7727 22.5085C28.5871 20.7661 29.7803 19.3977 31.3522 18.4034C32.9242 17.3996 34.8465 16.8977 37.1193 16.8977C40.1306 16.8977 42.5407 17.8021 44.3494 19.6108C46.1581 21.4195 47.0625 23.9432 47.0625 27.1818V29.9091H32.7869C32.9573 31.2064 33.3977 32.2434 34.1079 33.0199C34.8181 33.7869 35.8598 34.1704 37.2329 34.1704C38.1041 34.1704 38.7954 34.0237 39.3068 33.7301C39.8276 33.4365 40.2253 33.072 40.5 32.6364C40.784 32.2007 41.0018 31.7651 41.1534 31.3295L46.892 32.8636C46.6647 33.8106 46.1912 34.7907 45.4715 35.804C44.7613 36.8078 43.7386 37.66 42.4034 38.3608C41.0776 39.0521 39.3731 39.3977 37.2897 39.3977ZM37.0625 22.0682C35.9924 22.0682 35.1164 22.3901 34.4346 23.0341C33.7528 23.6686 33.2698 24.5587 32.9858 25.7045H40.9829C40.9829 24.6818 40.6467 23.8201 39.9744 23.1193C39.3115 22.4186 38.3409 22.0682 37.0625 22.0682ZM57.0092 9.90908V39H50.4751V9.90908H57.0092ZM64.6228 15.9886C63.6569 15.9886 62.8283 15.6714 62.137 15.0369C61.4457 14.393 61.1001 13.6307 61.1001 12.75C61.1001 11.8693 61.4457 11.1117 62.137 10.4773C62.8283 9.83332 63.6569 9.51135 64.6228 9.51135C65.5887 9.51135 66.4079 9.83332 67.0802 10.4773C67.7526 11.1117 68.0887 11.8693 68.0887 12.75C68.0887 13.6307 67.7526 14.393 67.0802 15.0369C66.4079 15.6714 65.5887 15.9886 64.6228 15.9886ZM67.8615 17.1818V39H61.3274V17.1818H67.8615ZM93.0461 17.1818L85.0348 39H78.8984L70.9438 17.1818H77.6484L81.9098 30.7614H82.137L86.3416 17.1818H93.0461ZM105.063 39.3977C101.739 39.3977 99.1162 38.4318 97.1938 36.5C95.281 34.5587 94.3245 31.8693 94.3245 28.4318C94.3245 26.2159 94.7317 24.2415 95.5461 22.5085C96.3605 20.7661 97.5537 19.3977 99.1257 18.4034C100.698 17.3996 102.62 16.8977 104.893 16.8977C107.904 16.8977 110.314 17.8021 112.123 19.6108C113.932 21.4195 114.836 23.9432 114.836 27.1818V29.9091H100.56C100.731 31.2064 101.171 32.2434 101.881 33.0199C102.592 33.7869 103.633 34.1704 105.006 34.1704C105.878 34.1704 106.569 34.0237 107.08 33.7301C107.601 33.4365 107.999 33.072 108.273 32.6364C108.557 32.2007 108.775 31.7651 108.927 31.3295L114.665 32.8636C114.438 33.8106 113.965 34.7907 113.245 35.804C112.535 36.8078 111.512 37.66 110.177 38.3608C108.851 39.0521 107.146 39.3977 105.063 39.3977ZM104.836 22.0682C103.766 22.0682 102.89 22.3901 102.208 23.0341C101.526 23.6686 101.043 24.5587 100.759 25.7045H108.756C108.756 24.6818 108.42 23.8201 107.748 23.1193C107.085 22.4186 106.114 22.0682 104.836 22.0682ZM118.249 9.90908H124.783V19.5114H125.01C125.379 18.6875 125.999 18.0483 126.871 17.5937C127.751 17.1297 128.76 16.8977 129.896 16.8977C131.355 16.8977 132.723 17.3049 134.001 18.1193C135.28 18.9242 136.317 20.1553 137.112 21.8125C137.908 23.4602 138.305 25.553 138.305 28.0909C138.305 30.572 137.922 32.6458 137.155 34.3125C136.397 35.9792 135.379 37.2339 134.101 38.0767C132.832 38.9195 131.43 39.3409 129.896 39.3409C128.76 39.3409 127.751 39.1231 126.871 38.6875C125.999 38.2424 125.379 37.6079 125.01 36.7841H124.726V39H118.249V9.90908ZM132.169 28.0909C132.169 26.1875 131.814 24.7102 131.104 23.6591C130.403 22.5985 129.356 22.0682 127.964 22.0682C126.961 22.0682 126.175 22.3381 125.606 22.8778C125.038 23.4176 124.636 24.142 124.399 25.0511C124.162 25.9602 124.044 26.9735 124.044 28.0909C124.044 29.1894 124.158 30.2026 124.385 31.1307C124.612 32.0492 125.01 32.7879 125.578 33.3466C126.146 33.8958 126.942 34.1704 127.964 34.1704C129.356 34.1704 130.403 33.6354 131.104 32.5653C131.814 31.4858 132.169 29.9943 132.169 28.0909Z" fill="#FB8500"/>
<path d="M190.637 24.4432C190.114 24.4432 189.657 24.3466 189.265 24.1534C188.873 23.9545 188.583 23.6648 188.396 23.2841C188.208 22.8977 188.16 22.4205 188.251 21.8523C188.319 21.4261 188.458 21.0597 188.668 20.7528C188.879 20.4403 189.146 20.1818 189.47 19.9773C189.799 19.7727 190.177 19.6108 190.603 19.4915C191.035 19.3665 191.501 19.2784 192.001 19.2273C192.478 19.1818 192.887 19.1364 193.228 19.0909C193.569 19.0398 193.83 18.9659 194.012 18.8693C194.194 18.767 194.285 18.6136 194.285 18.4091V18.2727C194.336 17.8125 194.251 17.4545 194.029 17.1989C193.808 16.9375 193.45 16.8068 192.955 16.8068C192.444 16.8068 192.007 16.9205 191.643 17.1477C191.285 17.3693 191.029 17.642 190.876 17.9659L189.205 17.7614C189.529 17.0114 190.046 16.4375 190.757 16.0398C191.467 15.642 192.257 15.4432 193.126 15.4432C193.739 15.4432 194.293 15.5455 194.788 15.75C195.288 15.9489 195.663 16.2614 195.913 16.6875C196.168 17.108 196.239 17.6477 196.126 18.3068L195.137 24.2727H193.399L193.637 22.9432H193.569C193.245 23.4205 192.828 23.7898 192.316 24.0511C191.81 24.3125 191.251 24.4432 190.637 24.4432ZM191.319 23.1477C191.739 23.1477 192.132 23.054 192.495 22.8665C192.859 22.679 193.163 22.4233 193.407 22.0994C193.651 21.7756 193.808 21.4091 193.876 21L194.046 19.9432C193.887 20.0341 193.697 20.1051 193.475 20.1562C193.254 20.2074 193.024 20.25 192.785 20.2841C192.546 20.3182 192.319 20.3523 192.103 20.3864C191.472 20.4716 190.978 20.6392 190.62 20.8892C190.268 21.1335 190.058 21.4432 189.989 21.8182C189.938 22.142 190.015 22.446 190.22 22.7301C190.424 23.0085 190.791 23.1477 191.319 23.1477ZM204.981 24.2727H203.208L203.481 22.6705H203.379C203.185 23 202.95 23.2983 202.671 23.5653C202.393 23.8324 202.072 24.0455 201.708 24.2045C201.345 24.3636 200.935 24.4432 200.481 24.4432C199.81 24.4432 199.239 24.2642 198.768 23.9062C198.296 23.5426 197.964 23.0256 197.771 22.3551C197.578 21.679 197.56 20.875 197.72 19.9432C197.867 19.0227 198.146 18.2273 198.555 17.5568C198.964 16.8807 199.461 16.3608 200.046 15.9972C200.632 15.6278 201.265 15.4432 201.947 15.4432C202.435 15.4432 202.839 15.5312 203.157 15.7074C203.475 15.8778 203.722 16.0994 203.899 16.3722C204.075 16.6392 204.197 16.9205 204.265 17.2159H204.333L205.117 12.6477H206.924L204.981 24.2727ZM203.924 19.9432C204.078 19.0398 204.012 18.3097 203.728 17.7528C203.444 17.1903 202.953 16.9091 202.254 16.9091C201.538 16.9091 200.947 17.196 200.481 17.7699C200.021 18.3381 199.714 19.0739 199.56 19.9773C199.47 20.5455 199.475 21.054 199.578 21.5028C199.68 21.946 199.873 22.2983 200.157 22.5597C200.441 22.8153 200.81 22.9432 201.265 22.9432C201.731 22.9432 202.143 22.8182 202.501 22.5682C202.864 22.3125 203.166 21.9602 203.404 21.5114C203.649 21.0568 203.822 20.5341 203.924 19.9432ZM207.34 24.2727L208.806 15.5455H210.544L210.271 17.0114H210.374C210.629 16.5341 210.99 16.1534 211.456 15.8693C211.928 15.5852 212.453 15.4432 213.033 15.4432C213.629 15.4432 214.112 15.5937 214.482 15.8949C214.851 16.196 215.061 16.6023 215.112 17.1136H215.215C215.47 16.6023 215.854 16.196 216.365 15.8949C216.877 15.5937 217.448 15.4432 218.078 15.4432C218.913 15.4432 219.53 15.7074 219.928 16.2358C220.325 16.7642 220.448 17.4886 220.294 18.4091L219.306 24.2727H217.499L218.419 18.7159C218.504 18.1705 218.436 17.7443 218.215 17.4375C217.993 17.1307 217.618 16.9773 217.09 16.9773C216.527 16.9773 216.078 17.1562 215.743 17.5142C215.408 17.8665 215.198 18.2898 215.112 18.7841L214.192 24.2727H212.453L213.374 18.6818C213.459 18.1705 213.388 17.7585 213.161 17.446C212.933 17.1335 212.573 16.9773 212.078 16.9773C211.618 16.9773 211.192 17.142 210.8 17.4716C210.413 17.7955 210.169 18.2557 210.067 18.8523L209.146 24.2727H207.34ZM221.566 24.2727L223.032 15.5455H224.839L223.373 24.2727H221.566ZM224.225 14.3523C223.884 14.3523 223.629 14.2386 223.458 14.0114C223.293 13.7784 223.22 13.5511 223.237 13.3295C223.254 13.0909 223.367 12.8608 223.578 12.6392C223.788 12.4176 224.038 12.3068 224.328 12.3068C224.6 12.3068 224.842 12.3949 225.052 12.571C225.262 12.7415 225.35 13.0057 225.316 13.3636C225.282 13.6875 225.151 13.9347 224.924 14.1051C224.697 14.2699 224.464 14.3523 224.225 14.3523ZM228.361 19.0227L227.475 24.2727H225.668L227.134 15.5455H228.872L228.6 17.0455H228.702C228.975 16.5511 229.361 16.1619 229.861 15.8778C230.367 15.5881 230.935 15.4432 231.565 15.4432C232.452 15.4432 233.131 15.7301 233.602 16.304C234.074 16.8778 234.225 17.6591 234.054 18.6477L233.1 24.2727H231.293L232.179 18.9545C232.281 18.3409 232.19 17.858 231.906 17.5057C231.628 17.1534 231.207 16.9773 230.645 16.9773C230.082 16.9773 229.585 17.1619 229.154 17.5312C228.727 17.8949 228.463 18.392 228.361 19.0227Z" fill="#FB8500"/>
<path d="M151.354 38C149.205 38 147.36 37.5707 145.82 36.7121C144.279 35.8451 143.096 34.6582 142.268 33.1515C141.441 31.6364 141.028 29.9024 141.028 27.9495C141.028 25.9966 141.441 24.2753 142.268 22.7854C143.096 21.287 144.279 20.117 145.82 19.2753C147.36 18.4251 149.205 18 151.354 18C153.502 18 155.347 18.4251 156.887 19.2753C158.428 20.117 159.611 21.287 160.439 22.7854C161.266 24.2753 161.679 25.9966 161.679 27.9495C161.679 29.9024 161.266 31.6364 160.439 33.1515C159.611 34.6582 158.428 35.8451 156.887 36.7121C155.347 37.5707 153.502 38 151.354 38ZM151.354 33.3535C152.837 33.3535 153.892 32.8569 154.52 31.8636C155.147 30.8704 155.461 29.5657 155.461 27.9495C155.461 26.3333 155.147 25.037 154.52 24.0606C153.892 23.0842 152.837 22.596 151.354 22.596C149.87 22.596 148.815 23.0842 148.187 24.0606C147.56 25.037 147.246 26.3333 147.246 27.9495C147.246 29.5657 147.56 30.8704 148.187 31.8636C148.815 32.8569 149.87 33.3535 151.354 33.3535Z" fill="url(#paint0_linear_8_567)"/>
<path d="M169.709 38C167.56 38 165.716 37.5707 164.175 36.7121C162.635 35.8451 161.451 34.6582 160.624 33.1515C159.797 31.6364 159.383 29.9024 159.383 27.9495C159.383 25.9966 159.797 24.2753 160.624 22.7854C161.451 21.287 162.635 20.117 164.175 19.2753C165.716 18.4251 167.56 18 169.709 18C171.858 18 173.703 18.4251 175.243 19.2753C176.783 20.117 177.967 21.287 178.794 22.7854C179.621 24.2753 180.035 25.9966 180.035 27.9495C180.035 29.9024 179.621 31.6364 178.794 33.1515C177.967 34.6582 176.783 35.8451 175.243 36.7121C173.703 37.5707 171.858 38 169.709 38ZM169.709 33.3535C171.192 33.3535 172.248 32.8569 172.875 31.8636C173.503 30.8704 173.817 29.5657 173.817 27.9495C173.817 26.3333 173.503 25.037 172.875 24.0606C172.248 23.0842 171.192 22.596 169.709 22.596C168.226 22.596 167.17 23.0842 166.543 24.0606C165.915 25.037 165.602 26.3333 165.602 27.9495C165.602 29.5657 165.915 30.8704 166.543 31.8636C167.17 32.8569 168.226 33.3535 169.709 33.3535Z" fill="url(#paint1_linear_8_567)"/>
<defs>
<linearGradient id="paint0_linear_8_567" x1="185.036" y1="26" x2="141.034" y2="39.7258" gradientUnits="userSpaceOnUse">
<stop stop-color="#FB8500"/>
<stop offset="1" stop-color="#FFB703"/>
</linearGradient>
<linearGradient id="paint1_linear_8_567" x1="185.036" y1="26" x2="141.034" y2="39.7258" gradientUnits="userSpaceOnUse">
<stop stop-color="#FB8500"/>
<stop offset="1" stop-color="#FFB703"/>
</linearGradient>
</defs>
</svg>
