<svg width="182" height="48" viewBox="0 0 182 48" fill="none" xmlns="http://www.w3.org/2000/svg">
<path d="M12.3295 39H2.04545V9.90909H12.3295C15.1705 9.90909 17.6231 10.4915 19.6875 11.6562C21.7519 12.8116 23.3428 14.4782 24.4602 16.6562C25.5777 18.8248 26.1364 21.4242 26.1364 24.4545C26.1364 27.4848 25.5777 30.089 24.4602 32.267C23.3428 34.4356 21.7519 36.1023 19.6875 37.267C17.6231 38.4223 15.1705 39 12.3295 39ZM11.9886 15.5909H8.63636V33.3182H12.0455C14.4602 33.3182 16.3021 32.6364 17.571 31.2727C18.8494 29.9091 19.4886 27.6364 19.4886 24.4545C19.4886 21.2727 18.8494 19 17.571 17.6364C16.2926 16.2727 14.4318 15.5909 11.9886 15.5909ZM39.2898 39.3977C35.9659 39.3977 33.3428 38.4318 31.4205 36.5C29.5076 34.5587 28.5511 31.8693 28.5511 28.4318C28.5511 26.2159 28.9583 24.2415 29.7727 22.5085C30.5871 20.7661 31.7803 19.3977 33.3523 18.4034C34.9242 17.3996 36.8466 16.8977 39.1193 16.8977C42.1307 16.8977 44.5407 17.8021 46.3494 19.6108C48.1581 21.4195 49.0625 23.9432 49.0625 27.1818V29.9091H34.7869C34.9574 31.2064 35.3977 32.2434 36.108 33.0199C36.8182 33.7869 37.8598 34.1705 39.233 34.1705C40.1042 34.1705 40.7955 34.0237 41.3068 33.7301C41.8277 33.4366 42.2254 33.072 42.5 32.6364C42.7841 32.2008 43.0019 31.7652 43.1534 31.3295L48.892 32.8636C48.6648 33.8106 48.1913 34.7907 47.4716 35.804C46.7614 36.8078 45.7386 37.66 44.4034 38.3608C43.0777 39.0521 41.3731 39.3977 39.2898 39.3977ZM39.0625 22.0682C37.9924 22.0682 37.1165 22.3902 36.4347 23.0341C35.7528 23.6686 35.2699 24.5587 34.9858 25.7045H42.983C42.983 24.6818 42.6468 23.8201 41.9744 23.1193C41.3116 22.4186 40.3409 22.0682 39.0625 22.0682ZM59.0092 9.90909V39H52.4751V9.90909H59.0092ZM66.6229 15.9886C65.657 15.9886 64.8284 15.6714 64.1371 15.0369C63.4458 14.393 63.1001 13.6307 63.1001 12.75C63.1001 11.8693 63.4458 11.1117 64.1371 10.4773C64.8284 9.83333 65.657 9.51136 66.6229 9.51136C67.5888 9.51136 68.4079 9.83333 69.0803 10.4773C69.7526 11.1117 70.0888 11.8693 70.0888 12.75C70.0888 13.6307 69.7526 14.393 69.0803 15.0369C68.4079 15.6714 67.5888 15.9886 66.6229 15.9886ZM69.8615 17.1818V39H63.3274V17.1818H69.8615ZM95.0462 17.1818L87.0348 39H80.8984L72.9439 17.1818H79.6484L83.9098 30.7614H84.1371L88.3416 17.1818H95.0462ZM107.063 39.3977C103.739 39.3977 101.116 38.4318 99.1939 36.5C97.281 34.5587 96.3246 31.8693 96.3246 28.4318C96.3246 26.2159 96.7318 24.2415 97.5462 22.5085C98.3606 20.7661 99.5537 19.3977 101.126 18.4034C102.698 17.3996 104.62 16.8977 106.893 16.8977C109.904 16.8977 112.314 17.8021 114.123 19.6108C115.932 21.4195 116.836 23.9432 116.836 27.1818V29.9091H102.56C102.731 31.2064 103.171 32.2434 103.881 33.0199C104.592 33.7869 105.633 34.1705 107.006 34.1705C107.878 34.1705 108.569 34.0237 109.08 33.7301C109.601 33.4366 109.999 33.072 110.273 32.6364C110.558 32.2008 110.775 31.7652 110.927 31.3295L116.665 32.8636C116.438 33.8106 115.965 34.7907 115.245 35.804C114.535 36.8078 113.512 37.66 112.177 38.3608C110.851 39.0521 109.147 39.3977 107.063 39.3977ZM106.836 22.0682C105.766 22.0682 104.89 22.3902 104.208 23.0341C103.526 23.6686 103.043 24.5587 102.759 25.7045H110.756C110.756 24.6818 110.42 23.8201 109.748 23.1193C109.085 22.4186 108.114 22.0682 106.836 22.0682ZM120.249 9.90909H126.783V19.5114H127.01C127.379 18.6875 128 18.0483 128.871 17.5938C129.751 17.1297 130.76 16.8977 131.896 16.8977C133.355 16.8977 134.723 17.3049 136.001 18.1193C137.28 18.9242 138.317 20.1553 139.112 21.8125C139.908 23.4602 140.305 25.553 140.305 28.0909C140.305 30.572 139.922 32.6458 139.155 34.3125C138.397 35.9792 137.379 37.2339 136.101 38.0767C134.832 38.9195 133.43 39.3409 131.896 39.3409C130.76 39.3409 129.751 39.1231 128.871 38.6875C128 38.2424 127.379 37.608 127.01 36.7841H126.726V39H120.249V9.90909ZM134.169 28.0909C134.169 26.1875 133.814 24.7102 133.104 23.6591C132.403 22.5985 131.357 22.0682 129.964 22.0682C128.961 22.0682 128.175 22.3381 127.607 22.8778C127.038 23.4176 126.636 24.142 126.399 25.0511C126.162 25.9602 126.044 26.9735 126.044 28.0909C126.044 29.1894 126.158 30.2027 126.385 31.1307C126.612 32.0492 127.01 32.7879 127.578 33.3466C128.146 33.8958 128.942 34.1705 129.964 34.1705C131.357 34.1705 132.403 33.6354 133.104 32.5653C133.814 31.4858 134.169 29.9943 134.169 28.0909Z" fill="#FB8500"/>
<path d="M153.411 39.5C151.269 39.5 149.43 39.017 147.895 38.0511C146.36 37.0758 145.18 35.7405 144.355 34.0455C143.531 32.3409 143.118 30.3901 143.118 28.1932C143.118 25.9962 143.531 24.0597 144.355 22.3835C145.18 20.6979 146.36 19.3816 147.895 18.4347C149.43 17.4782 151.269 17 153.411 17C155.553 17 157.392 17.4782 158.927 18.4347C160.462 19.3816 161.642 20.6979 162.467 22.3835C163.291 24.0597 163.704 25.9962 163.704 28.1932C163.704 30.3901 163.291 32.3409 162.467 34.0455C161.642 35.7405 160.462 37.0758 158.927 38.0511C157.392 39.017 155.553 39.5 153.411 39.5ZM153.411 34.2727C154.89 34.2727 155.942 33.714 156.567 32.5966C157.193 31.4792 157.505 30.0114 157.505 28.1932C157.505 26.375 157.193 24.9167 156.567 23.8182C155.942 22.7197 154.89 22.1705 153.411 22.1705C151.933 22.1705 150.881 22.7197 150.255 23.8182C149.629 24.9167 149.317 26.375 149.317 28.1932C149.317 30.0114 149.629 31.4792 150.255 32.5966C150.881 33.714 151.933 34.2727 153.411 34.2727Z" fill="#FB8500"/>
<path d="M171.707 39.5C169.565 39.5 167.727 39.017 166.191 38.0511C164.656 37.0758 163.476 35.7405 162.652 34.0455C161.827 32.3409 161.415 30.3901 161.415 28.1932C161.415 25.9962 161.827 24.0597 162.652 22.3835C163.476 20.6979 164.656 19.3816 166.191 18.4347C167.727 17.4782 169.565 17 171.707 17C173.849 17 175.688 17.4782 177.223 18.4347C178.759 19.3816 179.939 20.6979 180.763 22.3835C181.588 24.0597 182 25.9962 182 28.1932C182 30.3901 181.588 32.3409 180.763 34.0455C179.939 35.7405 178.759 37.0758 177.223 38.0511C175.688 39.017 173.849 39.5 171.707 39.5ZM171.707 34.2727C173.186 34.2727 174.238 33.714 174.863 32.5966C175.489 31.4792 175.802 30.0114 175.802 28.1932C175.802 26.375 175.489 24.9167 174.863 23.8182C174.238 22.7197 173.186 22.1705 171.707 22.1705C170.229 22.1705 169.177 22.7197 168.551 23.8182C167.926 24.9167 167.613 26.375 167.613 28.1932C167.613 30.0114 167.926 31.4792 168.551 32.5966C169.177 33.714 170.229 34.2727 171.707 34.2727Z" fill="#FB8500"/>
</svg>
