<?xml version="1.0" standalone="no"?>
<!DOCTYPE svg PUBLIC "-//W3C//DTD SVG 20010904//EN"
 "http://www.w3.org/TR/2001/REC-SVG-20010904/DTD/svg10.dtd">
<svg version="1.0" xmlns="http://www.w3.org/2000/svg"
 width="260.000000pt" height="260.000000pt" viewBox="0 0 260.000000 260.000000"
 preserveAspectRatio="xMidYMid meet">
<metadata>
Created by potrace 1.14, written by Peter Selinger 2001-2017
</metadata>
<g transform="translate(0.000000,260.000000) scale(0.100000,-0.100000)"
fill="#000000" stroke="none">
<path d="M530 2025 c-202 -40 -360 -162 -450 -350 -58 -122 -74 -197 -74 -360
-1 -168 7 -219 51 -337 45 -123 126 -231 227 -303 121 -86 238 -119 416 -118
90 1 132 6 195 25 174 51 284 139 389 311 l17 28 38 -62 c83 -137 230 -245
386 -284 95 -24 276 -24 370 0 225 57 389 213 460 437 36 114 44 179 40 313
-4 129 -6 148 -23 210 -6 22 -11 42 -11 45 1 13 -64 145 -90 183 -84 123 -212
213 -356 253 -86 23 -272 27 -365 8 -124 -25 -233 -84 -320 -173 -41 -42 -86
-97 -100 -123 -24 -46 -40 -61 -40 -37 0 22 -90 138 -147 189 -72 64 -195 125
-291 144 -88 17 -234 18 -322 1z m270 -347 c82 -35 133 -122 155 -263 6 -44 8
-189 2 -220 -3 -11 -8 -37 -11 -59 -11 -56 -49 -138 -80 -169 -45 -46 -85 -61
-166 -64 -122 -4 -194 40 -243 147 -40 90 -53 280 -27 405 29 140 85 212 185
235 45 11 146 4 185 -12z m1231 -3 c102 -53 149 -169 153 -375 3 -129 -30
-255 -85 -325 -13 -15 -45 -38 -73 -51 -42 -19 -64 -23 -126 -20 -109 4 -163
37 -211 130 -49 92 -65 305 -33 434 31 126 79 188 169 220 43 15 167 7 206
-13z"/>
</g>
</svg>
